# xmcd CD database file
#
# Track frame offsets:
#	150
#	13257
#	71432
#	93151
#	119457
#	135489
#	145051
#	182740
#	217202
#	231225
#	263617
#	306186
#
# Disc length: 4440 seconds
#
# Revision: 0
# Processed by: cddbd v1.5.1PL0 Copyright (c) Steve Scherf et al.
# Submitted via: CDex 1.51
#
DISCID=ab11560c
DTITLE=NEVER SOUNDS - 新撰組異聞 〜ある哀の詩〜
DYEAR=2004
DGENRE=Other
TTITLE0=壱、発端
TTITLE1=弐、壬生狼
TTITLE2=参、襲撃
TTITLE3=肆、局中法度
TTITLE4=伍、鬼と狼
TTITLE5=陸、朗報
TTITLE6=漆、キャバクラ将軍
TTITLE7=捌、兆し
TTITLE8=玖、銃と刀
TTITLE9=拾、大政奉還
TTITLE10=拾壱、新撰組
TTITLE11=拾弐、Sing in the blue sky
EXTD=YEAR: 2004
EXTT0=
EXTT1=
EXTT2=
EXTT3=
EXTT4=
EXTT5=
EXTT6=
EXTT7=
EXTT8=
EXTT9=
EXTT10=
EXTT11=
PLAYORDER=
